PathFileType	4	(X/Y/Z)	C:/Users/CLatella/Desktop/xsens/7Novembre/Claudia/Claudia mvnx and c3d/Claudia-022.trc	
DataRate	CameraRate	NumFrames	NumMarkers	Units	OrigDataRate	OrigDataStartFrame	OrigNumFrames	
240.00	240.00	6	64	mm	240.00	557	1113	
Frame#	Time	pHipOrigin			pRightASI			pLeftASI			pRightCSI			pLeftCSI			pRightIschialTub			pLeftIschialTub			pSacrum			pL5SpinalProcess			pL3SpinalProcess			pT12SpinalProcess			pPX			pIJ			pT4SpinalProcess			pT8SpinalProcess			pC7SpinalProcess			pTopOfHead			pRightAuricularis			pLeftAuricularis			pBackOfHead			pRightAcromion			pLeftAcromion			pRightArmLatEpicondyle			pRightArmMedEpicondyle			pLeftArmLatEpicondyle			pLeftArmMedEpicondyle			pRightUlnarStyloid			pRightRadialStyloid			pRightOlecranon			pLeftUlnarStyloid			pLeftRadialStyloid			pLeftOlecranon			pRightTopOfHand			pRightPinky			pRightBallHand			pLeftTopOfHand			pLeftPinky			pLeftBallHand			pRightGreaterTrochanter			pRightKneeLatEpicondyle			pRightKneeMedEpicondyle			pRightPatella			pLeftGreaterTrochanter			pLeftKneeLatEpicondyle			pLeftKneeMedEpicondyle			pLeftPatella			pRightLatMalleolus			pRightMedMalleolus			pRightTibialTub			pLeftLatMalleolus			pLeftMedMalleolus			pLeftTibialTub			pRightHeelFoot			pRightFirstMetatarsal			pRightFifthMetatarsal			pRightPivotFoot			pRightHeelCenter			pRightToe			pLeftHeelFoot			pLeftFirstMetatarsal			pLeftFifthMetatarsal			pLeftPivotFoot			pLeftHeelCenter			pLeftToe			
		X1	Y1	Z1	X2	Y2	Z2	X3	Y3	Z3	X4	Y4	Z4	X5	Y5	Z5	X6	Y6	Z6	X7	Y7	Z7	X8	Y8	Z8	X9	Y9	Z9	X10	Y10	Z10	X11	Y11	Z11	X12	Y12	Z12	X13	Y13	Z13	X14	Y14	Z14	X15	Y15	Z15	X16	Y16	Z16	X17	Y17	Z17	X18	Y18	Z18	X19	Y19	Z19	X20	Y20	Z20	X21	Y21	Z21	X22	Y22	Z22	X23	Y23	Z23	X24	Y24	Z24	X25	Y25	Z25	X26	Y26	Z26	X27	Y27	Z27	X28	Y28	Z28	X29	Y29	Z29	X30	Y30	Z30	X31	Y31	Z31	X32	Y32	Z32	X33	Y33	Z33	X34	Y34	Z34	X35	Y35	Z35	X36	Y36	Z36	X37	Y37	Z37	X38	Y38	Z38	X39	Y39	Z39	X40	Y40	Z40	X41	Y41	Z41	X42	Y42	Z42	X43	Y43	Z43	X44	Y44	Z44	X45	Y45	Z45	X46	Y46	Z46	X47	Y47	Z47	X48	Y48	Z48	X49	Y49	Z49	X50	Y50	Z50	X51	Y51	Z51	X52	Y52	Z52	X53	Y53	Z53	X54	Y54	Z54	X55	Y55	Z55	X56	Y56	Z56	X57	Y57	Z57	X58	Y58	Z58	X59	Y59	Z59	X60	Y60	Z60	X61	Y61	Z61	X62	Y62	Z62	X63	Y63	Z63	X64	Y64	Z64	

557	2.317	20.64215	219.19749	937.76616	126.17582	105.21691	949.53905	113.08310	344.63421	936.92147	152.30847	130.61045	1024.24147	141.38027	330.22166	1013.73562	-47.77787	165.66516	945.47397	-53.21558	265.49716	940.19465	-10.29468	220.99246	1003.38815	67.52254	225.95503	1030.31269	154.73696	228.75307	1102.90339	234.98267	229.12262	1162.92929	394.47102	235.66898	1088.96597	494.40861	232.13184	1156.48852	393.09840	225.21592	1264.87302	317.86804	227.64441	1218.52056	438.50058	226.06061	1292.74784	709.69940	234.82429	1336.83019	607.54450	160.96656	1325.16289	606.91098	299.81276	1301.77549	579.77526	238.25585	1360.85111	444.67738	45.45497	1287.09897	407.56374	424.24640	1245.44511	216.50504	-51.20943	1046.73139	207.26622	11.19216	1031.26297	156.00400	462.31032	1020.33477	160.28025	399.59196	1003.81049	237.88630	0.47514	796.49147	275.31670	32.15108	806.52219	193.53998	-38.16951	1034.58895	149.40484	367.01854	776.48284	199.29445	364.80123	778.43619	133.03894	434.48829	1011.72948	367.22971	-33.47091	664.40281	291.47143	-36.32174	708.53795	259.90108	2.27011	762.54543	260.11225	352.97554	616.25538	230.91759	397.79699	685.73128	185.77938	384.80986	742.27283	40.86196	67.36416	919.02456	25.65751	48.88653	529.46331	10.18909	122.37471	520.69964	58.81166	96.92837	525.71499	5.17374	370.71407	907.04050	-47.83067	359.31073	520.54126	-38.53906	284.39713	515.57869	-0.95028	324.73116	514.94517	11.08658	37.00805	120.05181	14.51814	96.98117	116.62025	81.14320	84.41638	492.93040	-59.49797	374.99032	113.24148	-50.94547	315.59793	109.17640	19.74467	330.53842	484.64186	-33.36532	65.83316	15.41562	133.67246	86.10576	6.75753	125.64789	8.81647	11.29775	151.72775	46.19408	8.07736	8.23574	61.08177	8.34133	218.08884	39.22537	6.54636	-100.67669	339.83003	8.07736	67.41696	347.64343	0.00000	46.61642	422.50423	5.22653	78.55633	390.03639	1.79497	-60.39546	351.49733	1.26704	142.85848	407.93329	0.73911 
558	2.321	20.58936	219.19749	937.76616	126.07024	105.21691	949.53905	113.03031	344.58142	936.92147	152.20288	130.55766	1024.24147	141.32748	330.16887	1013.73562	-47.83067	165.66516	945.47397	-53.32116	265.49716	940.19465	-10.40027	220.93967	1003.38815	67.46975	225.90223	1030.31269	154.68417	228.70028	1102.90339	234.92988	229.12262	1162.87650	394.36543	235.66898	1088.96597	494.30302	232.13184	1156.43572	392.99281	225.21592	1264.87302	317.81525	227.59162	1218.52056	438.44778	226.00782	1292.74784	709.64661	234.77150	1336.77740	607.49171	160.91377	1325.11009	606.85819	299.75996	1301.72269	579.72247	238.20306	1360.79832	444.57180	45.40218	1287.04618	407.56374	424.19361	1245.44511	216.50504	-51.20943	1046.62580	207.26622	11.24496	1031.15739	156.10958	462.36312	1020.22919	160.38584	399.64476	1003.70491	237.93909	0.47514	796.38589	275.31670	32.15108	806.41660	193.53998	-38.16951	1034.48336	149.40484	367.07133	776.37725	199.29445	364.85402	778.33060	133.09174	434.54108	1011.62389	367.22971	-33.47091	664.29722	291.47143	-36.32174	708.43236	259.95387	2.27011	762.43984	260.11225	352.92275	616.14980	230.97039	397.84979	685.62569	185.77938	384.86265	742.16724	40.75637	67.36416	919.02456	25.65751	48.83374	529.46331	10.13630	122.32192	520.69964	58.75887	96.87558	525.71499	5.12094	370.71407	907.04050	-47.88346	359.31073	520.54126	-38.59185	284.39713	515.57869	-1.00307	324.73116	514.94517	11.08658	37.00805	120.05181	14.57093	96.92837	116.62025	81.09040	84.41638	492.93040	-59.49797	374.99032	113.24148	-50.94547	315.59793	109.17640	19.69188	330.53842	484.64186	-33.31253	65.78037	15.41562	133.72525	86.05297	6.81033	125.70068	8.76368	11.29775	151.78054	46.14128	8.13016	8.28854	61.02897	8.34133	218.14163	39.17258	6.54636	-100.67669	339.83003	8.07736	67.36416	347.64343	0.00000	46.61642	422.50423	5.22653	78.55633	390.03639	1.79497	-60.39546	351.49733	1.26704	142.85848	407.93329	0.73911 
559	2.325	20.48377	219.19749	937.76616	126.01744	105.16412	949.53905	112.97751	344.58142	936.92147	152.09730	130.50487	1024.24147	141.22189	330.11607	1013.78841	-47.93625	165.66516	945.47397	-53.37396	265.49716	940.19465	-10.45306	220.93967	1003.38815	67.36416	225.90223	1030.31269	154.57858	228.70028	1102.90339	234.82429	229.06983	1162.92929	394.25985	235.61619	1088.96597	494.25023	232.07904	1156.43572	392.94002	225.16313	1264.87302	317.70966	227.53883	1218.52056	438.39499	225.95503	1292.74784	709.54102	234.71870	1336.72461	607.43891	160.86097	1325.05730	606.75260	299.75996	1301.66990	579.66967	238.15026	1360.74553	444.46621	45.34939	1287.04618	407.51095	424.19361	1245.44511	216.50504	-51.15664	1046.46742	207.26622	11.24496	1031.05180	156.16238	462.36312	1020.12360	160.43863	399.64476	1003.59932	237.93909	0.47514	796.28030	275.36949	32.15108	806.31101	193.53998	-38.16951	1034.37777	149.40484	367.12413	776.21887	199.34724	364.85402	778.17222	133.19732	434.54108	1011.51830	367.22971	-33.47091	664.13884	291.52422	-36.32174	708.32678	259.95387	2.27011	762.33425	260.16504	352.92275	616.04421	230.97039	397.84979	685.46731	185.83217	384.86265	742.06165	40.70358	67.36416	919.02456	25.60472	48.83374	529.46331	10.13630	122.32192	520.69964	58.75887	96.87558	525.76779	5.06815	370.66127	907.04050	-47.93625	359.31073	520.54126	-38.64464	284.44993	515.52590	-1.05586	324.73116	514.94517	11.13937	36.95526	120.05181	14.62372	96.87558	116.62025	81.09040	84.36358	492.98319	-59.55076	374.99032	113.24148	-50.99826	315.59793	109.17640	19.63908	330.53842	484.64186	-33.25974	65.67478	15.41562	133.77805	86.00017	6.81033	125.75348	8.71088	11.35054	151.83333	46.08849	8.13016	8.34133	60.97618	8.34133	218.19442	39.11978	6.59915	-100.72948	339.83003	8.07736	67.36416	347.64343	0.00000	46.56363	422.50423	5.22653	78.50353	390.03639	1.79497	-60.44825	351.44454	1.26704	142.80569	407.93329	0.73911 
560	2.329	20.43098	219.19749	937.76616	125.91186	105.11132	949.53905	112.92472	344.52862	936.97426	151.99171	130.50487	1024.29427	141.16910	330.11607	1013.78841	-48.04184	165.66516	945.47397	-53.42675	265.49716	940.19465	-10.55865	220.93967	1003.38815	67.25858	225.84944	1030.36549	154.47299	228.64748	1102.95618	234.71870	229.01704	1162.92929	394.20705	235.61619	1088.96597	494.14464	232.07904	1156.43572	392.83443	225.11034	1264.87302	317.60408	227.48603	1218.52056	438.28940	225.90223	1292.74784	709.48823	234.66591	1336.67181	607.33333	160.80818	1325.05730	606.69981	299.70717	1301.66990	579.56409	238.09747	1360.74553	444.36062	45.29659	1287.04618	407.45816	424.14082	1245.49790	216.45225	-51.15664	1046.36184	207.26622	11.29775	1030.94621	156.21517	462.36312	1019.96522	160.43863	399.59196	1003.49373	237.99188	0.47514	796.12192	275.42229	32.15108	806.15264	193.53998	-38.11671	1034.27219	149.45764	367.17692	776.11329	199.34724	364.90681	778.06664	133.25011	434.54108	1011.41272	367.22971	-33.41812	664.03326	291.52422	-36.26895	708.16840	260.00666	2.27011	762.22867	260.21783	352.92275	615.93862	231.07597	397.79699	685.36172	185.88497	384.91545	741.90327	40.59799	67.31137	919.02456	25.60472	48.83374	529.46331	10.08351	122.26912	520.69964	58.75887	96.82279	525.76779	5.01536	370.66127	907.04050	-47.98905	359.31073	520.54126	-38.75023	284.44993	515.52590	-1.16145	324.73116	514.94517	11.13937	36.90247	120.05181	14.67652	96.82279	116.62025	81.09040	84.31079	492.98319	-59.60356	374.99032	113.24148	-50.99826	315.59793	109.17640	19.58629	330.53842	484.64186	-33.15415	65.62199	15.36283	133.83084	85.94738	6.86312	125.80627	8.65809	11.35054	151.88613	46.03570	8.18295	8.39412	60.92339	8.34133	218.24722	39.11978	6.65195	-100.78228	339.77723	8.07736	67.31137	347.64343	0.00000	46.51084	422.50423	5.22653	78.45074	390.03639	1.79497	-60.50104	351.44454	1.26704	142.75290	407.93329	0.73911 
561	2.333	20.32539	219.14470	937.76616	125.75348	105.11132	949.53905	112.81913	344.52862	936.97426	151.88613	130.45207	1024.29427	141.06351	330.06328	1013.78841	-48.14743	165.66516	945.42118	-53.53234	265.49716	940.19465	-10.66423	220.93967	1003.38815	67.20578	225.84944	1030.36549	154.36741	228.59469	1102.95618	234.66591	228.96424	1162.92929	394.10147	235.56340	1088.96597	494.03905	232.02625	1156.43572	392.72884	225.05754	1264.87302	317.49849	227.43324	1218.52056	438.18382	225.84944	1292.74784	709.38264	234.61312	1336.67181	607.22774	160.75539	1325.05730	606.59422	299.65438	1301.66990	579.45850	238.04468	1360.79832	444.20224	45.24380	1287.04618	407.35257	424.08802	1245.49790	216.39945	-51.10385	1046.25625	207.26622	11.29775	1030.78783	156.26796	462.31032	1019.85963	160.49142	399.53917	1003.38815	238.04468	0.47514	796.01633	275.47508	32.15108	806.04705	193.48719	-38.11671	1034.11381	149.51043	367.17692	776.00770	199.40003	364.90681	777.96105	133.25011	434.48829	1011.30713	367.28251	-33.41812	663.87488	291.57701	-36.26895	708.06281	260.05946	2.27011	762.12308	260.21783	352.92275	615.78024	231.12876	397.79699	685.25614	185.93776	384.91545	741.79769	40.49241	67.31137	919.02456	25.55192	48.78095	529.46331	10.08351	122.26912	520.69964	58.70607	96.82279	525.76779	4.90977	370.66127	907.04050	-48.04184	359.31073	520.54126	-38.80302	284.44993	515.52590	-1.21424	324.73116	514.94517	11.13937	36.84968	120.05181	14.67652	96.76999	116.62025	81.03761	84.25800	492.98319	-59.60356	374.99032	113.18869	-51.05105	315.59793	109.17640	19.53350	330.53842	484.64186	-33.15415	65.51640	15.36283	133.88363	85.94738	6.86312	125.91186	8.60530	11.40334	151.93892	46.03570	8.23574	8.44692	60.81780	8.34133	218.35280	39.11978	6.70474	-100.78228	339.77723	8.07736	67.25858	347.64343	0.00000	46.51084	422.50423	5.22653	78.45074	390.03639	1.74218	-60.50104	351.44454	1.21424	142.75290	407.88050	0.73911 
562	2.338	20.21981	219.14470	937.76616	125.64789	105.05853	949.53905	112.76634	344.47583	936.97426	151.78054	130.39928	1024.29427	141.01072	330.01049	1013.78841	-48.25301	165.66516	945.42118	-53.63792	265.49716	940.19465	-10.76982	220.93967	1003.33535	67.10020	225.84944	1030.36549	154.26182	228.59469	1102.95618	234.50753	228.96424	1162.92929	393.99588	235.51060	1088.96597	493.93347	231.97346	1156.48852	392.62326	225.00475	1264.92581	317.39290	227.38045	1218.52056	438.07823	225.79665	1292.80064	709.27706	234.56032	1336.67181	607.12215	160.70259	1325.05730	606.48864	299.60159	1301.72269	579.35292	237.99188	1360.79832	444.04386	45.19101	1287.04618	407.24698	424.03523	1245.55070	216.39945	-51.10385	1046.09787	207.26622	11.29775	1030.68225	156.32076	462.25753	1019.75405	160.54422	399.48638	1003.33535	238.09747	0.47514	795.91075	275.52787	32.15108	805.94146	193.48719	-38.11671	1034.00822	149.56322	367.17692	775.84932	199.45283	364.85402	777.85546	133.30291	434.43550	1011.20154	367.33530	-33.36532	663.71650	291.62981	-36.26895	707.90443	260.11225	2.27011	761.96470	260.27063	352.86996	615.67466	231.18156	397.79699	685.15055	185.99055	384.91545	741.69210	40.33403	67.31137	919.02456	25.44634	48.78095	529.46331	10.03071	122.26912	520.69964	58.60049	96.76999	525.76779	4.85698	370.66127	907.04050	-48.09463	359.31073	520.54126	-38.85582	284.44993	515.52590	-1.26704	324.73116	514.94517	11.13937	36.79688	120.05181	14.72931	96.71720	116.62025	80.98482	84.20520	492.98319	-59.65635	374.93753	113.18869	-51.10385	315.59793	109.12361	19.48070	330.53842	484.64186	-33.10136	65.46361	15.36283	133.88363	85.94738	6.86312	125.96465	8.60530	11.45613	151.99171	45.98290	8.23574	8.49971	60.76501	8.34133	218.40560	39.11978	6.75753	-100.83507	339.77723	8.07736	67.25858	347.64343	0.00000	46.45804	422.50423	5.22653	78.39795	389.98360	1.74218	-60.55384	351.44454	1.21424	142.70010	407.88050	0.73911 
